<svg id="visual" viewBox="0 0 900 600" width="900" height="600" xmlns="http://www.w3.org/2000/svg" xmlns:xlink="http://www.w3.org/1999/xlink" version="1.1"><rect x="0" y="0" width="900" height="600" fill="#ef6868"></rect><path d="M0 436L10 436.8C20 437.7 40 439.3 60 436C80 432.7 100 424.3 120 418.3C140 412.3 160 408.7 180 425.7C200 442.7 220 480.3 240 483C260 485.7 280 453.3 300 439.3C320 425.3 340 429.7 360 445.5C380 461.3 400 488.7 420 485C440 481.3 460 446.7 480 428.5C500 410.3 520 408.7 540 423.5C560 438.3 580 469.7 600 471.7C620 473.7 640 446.3 660 428.8C680 411.3 700 403.7 720 401.7C740 399.7 760 403.3 780 420C800 436.7 820 466.3 840 467.2C860 468 880 440 890 426L900 412L900 601L890 601C880 601 860 601 840 601C820 601 800 601 780 601C760 601 740 601 720 601C700 601 680 601 660 601C640 601 620 601 600 601C580 601 560 601 540 601C520 601 500 601 480 601C460 601 440 601 420 601C400 601 380 601 360 601C340 601 320 601 300 601C280 601 260 601 240 601C220 601 200 601 180 601C160 601 140 601 120 601C100 601 80 601 60 601C40 601 20 601 10 601L0 601Z" fill="#dd1465" stroke-linecap="round" stroke-linejoin="miter"></path></svg>