<svg id="visual" viewBox="0 0 900 600" width="900" height="600" xmlns="http://www.w3.org/2000/svg" xmlns:xlink="http://www.w3.org/1999/xlink" version="1.1"><rect x="0" y="0" width="900" height="600" fill="#6d246d"></rect><path d="M0 402L21.5 405.2C43 408.3 86 414.7 128.8 406C171.7 397.3 214.3 373.7 257.2 373.8C300 374 343 398 385.8 414C428.7 430 471.3 438 514.2 433.8C557 429.7 600 413.3 642.8 397.8C685.7 382.3 728.3 367.7 771.2 365.3C814 363 857 373 878.5 378L900 383L900 601L878.5 601C857 601 814 601 771.2 601C728.3 601 685.7 601 642.8 601C600 601 557 601 514.2 601C471.3 601 428.7 601 385.8 601C343 601 300 601 257.2 601C214.3 601 171.7 601 128.8 601C86 601 43 601 21.5 601L0 601Z" fill="#fa7268"></path><path d="M0 394L21.5 397.8C43 401.7 86 409.3 128.8 421.8C171.7 434.3 214.3 451.7 257.2 460.2C300 468.7 343 468.3 385.8 458C428.7 447.7 471.3 427.3 514.2 428.3C557 429.3 600 451.7 642.8 454C685.7 456.3 728.3 438.7 771.2 434.2C814 429.7 857 438.3 878.5 442.7L900 447L900 601L878.5 601C857 601 814 601 771.2 601C728.3 601 685.7 601 642.8 601C600 601 557 601 514.2 601C471.3 601 428.7 601 385.8 601C343 601 300 601 257.2 601C214.3 601 171.7 601 128.8 601C86 601 43 601 21.5 601L0 601Z" fill="#ef5f67"></path><path d="M0 471L21.5 469.2C43 467.3 86 463.7 128.8 463.7C171.7 463.7 214.3 467.3 257.2 475C300 482.7 343 494.3 385.8 490.3C428.7 486.3 471.3 466.7 514.2 463.5C557 460.3 600 473.7 642.8 474.5C685.7 475.3 728.3 463.7 771.2 464.8C814 466 857 480 878.5 487L900 494L900 601L878.5 601C857 601 814 601 771.2 601C728.3 601 685.7 601 642.8 601C600 601 557 601 514.2 601C471.3 601 428.7 601 385.8 601C343 601 300 601 257.2 601C214.3 601 171.7 601 128.8 601C86 601 43 601 21.5 601L0 601Z" fill="#e34c67"></path><path d="M0 505L21.5 501.3C43 497.7 86 490.3 128.8 493C171.7 495.7 214.3 508.3 257.2 516.2C300 524 343 527 385.8 525.3C428.7 523.7 471.3 517.3 514.2 509.8C557 502.3 600 493.7 642.8 495.3C685.7 497 728.3 509 771.2 515.2C814 521.3 857 521.7 878.5 521.8L900 522L900 601L878.5 601C857 601 814 601 771.2 601C728.3 601 685.7 601 642.8 601C600 601 557 601 514.2 601C471.3 601 428.7 601 385.8 601C343 601 300 601 257.2 601C214.3 601 171.7 601 128.8 601C86 601 43 601 21.5 601L0 601Z" fill="#d53867"></path><path d="M0 558L21.5 558C43 558 86 558 128.8 554.3C171.7 550.7 214.3 543.3 257.2 540.8C300 538.3 343 540.7 385.8 542.5C428.7 544.3 471.3 545.7 514.2 546.5C557 547.3 600 547.7 642.8 550.5C685.7 553.3 728.3 558.7 771.2 559.8C814 561 857 558 878.5 556.5L900 555L900 601L878.5 601C857 601 814 601 771.2 601C728.3 601 685.7 601 642.8 601C600 601 557 601 514.2 601C471.3 601 428.7 601 385.8 601C343 601 300 601 257.2 601C214.3 601 171.7 601 128.8 601C86 601 43 601 21.5 601L0 601Z" fill="#c62368"></path></svg>